<?xml version="1.0" encoding="utf-8"?>
<!-- Generator: Adobe Illustrator 21.1.0, SVG Export Plug-In . SVG Version: 6.00 Build 0)  -->
<svg version="1.1" id="Capa_1" xmlns="http://www.w3.org/2000/svg" xmlns:xlink="http://www.w3.org/1999/xlink" x="0px" y="0px"
	 viewBox="0 0 50 50" style="enable-background:new 0 0 50 50;" xml:space="preserve">
<style type="text/css">
	.st0{fill:#395398;}
	.st1{fill:#FFFFFF;}
</style>
<g>
	<path class="st0" d="M44.1,38.4c0,3.6-3,6.6-6.6,6.6H12.1c-3.6,0-6.6-3-6.6-6.6V13c0-3.6,3-6.6,6.6-6.6h25.4c3.6,0,6.6,3,6.6,6.6
		V38.4z"/>
	<path class="st1" d="M32,45V30.2h5l0.7-5.8H32v-3.7c0-1.7,0.5-2.8,2.9-2.8l3.1,0v-5.2c-0.5-0.1-2.3-0.2-4.5-0.2
		c-4.4,0-7.4,2.7-7.4,7.6v4.3h-5v5.8h5V45H32L32,45z"/>
</g>
</svg>
