<?xml version="1.0" encoding="utf-8"?>
<!-- Generator: Adobe Illustrator 21.1.0, SVG Export Plug-In . SVG Version: 6.00 Build 0)  -->
<svg version="1.1" xmlns="http://www.w3.org/2000/svg" xmlns:xlink="http://www.w3.org/1999/xlink" x="0px" y="0px"
	 viewBox="0 0 500 500" style="enable-background:new 0 0 500 500;" xml:space="preserve">
<style type="text/css">
	.st0{fill:#FFFFFF;}
	.st1{fill:url(#SVGID_1_);}
	.st2{fill:url(#SVGID_2_);}
	.st3{fill:#313540;}
</style>
<g id="BACKGROUND">
	<rect class="st0" width="500" height="500"/>
</g>
<g id="OBJECTS">
	<g>
		<g>
			<linearGradient id="SVGID_1_" gradientUnits="userSpaceOnUse" x1="244.1895" y1="214.0976" x2="159.1635" y2="107.8149">
				<stop  offset="0" style="stop-color:#303540"/>
				<stop  offset="0.166" style="stop-color:#333843"/>
				<stop  offset="0.312" style="stop-color:#3B414E"/>
				<stop  offset="0.4505" style="stop-color:#485060"/>
				<stop  offset="0.5844" style="stop-color:#5B657A"/>
				<stop  offset="0.715" style="stop-color:#74809A"/>
				<stop  offset="0.8431" style="stop-color:#92A1C3"/>
				<stop  offset="0.967" style="stop-color:#B5C8F1"/>
				<stop  offset="1" style="stop-color:#BFD3FF"/>
			</linearGradient>
			<path class="st1" d="M189.3,236.5c6.9-2,13.5-2,19.1-0.4V148c0-10,6.6-18.7,16.2-21.4l70.3-20.1l-22.7-13.1
				c-14.2-8.2-31.6-8.2-45.8,0l-62.1,35.8c-14.2,8.2-22.9,23.3-22.9,39.7v71.7c0,11.6,4.4,22.6,12,30.9
				C159,255.4,172.9,241.2,189.3,236.5z"/>
			<linearGradient id="SVGID_2_" gradientUnits="userSpaceOnUse" x1="352.4033" y1="303.6354" x2="211.8738" y2="152.4774">
				<stop  offset="0" style="stop-color:#F6B10D"/>
				<stop  offset="1" style="stop-color:#EF4800"/>
			</linearGradient>
			<path class="st2" d="M337.1,131v101.8c0,21.3-17.2,43.4-38.5,49.5c-21.3,6.1-38.5-6.2-38.5-27.5c0-21.3,17.2-43.4,38.5-49.5
				c6.9-2,13.5-2,19.1-0.4v-45.1c0-8.4-8.1-14.5-16.1-12.2l-63,18c-6.4,1.8-10.8,7.6-10.8,14.3V264c0,15.1-8.7,30.6-21.4,40.6
				l19.9,11.5c14.2,8.2,31.6,8.2,45.8,0l62.1-35.8c14.2-8.2,22.9-23.3,22.9-39.7v-71.7C357.2,153.6,349.6,139.5,337.1,131z"/>
		</g>
		<g>
			<g>
				<path class="st3" d="M52.8,345.8v19.6h22.7v-19.6h6.1v47h-6.1v-22H52.8v22h-6.1v-47H52.8z"/>
				<path class="st3" d="M121.7,370.8h-18.3v16.9h20.3v5.1H97.4v-47h25.4v5.1h-19.3v14.8h18.3V370.8z"/>
				<path class="st3" d="M162.6,392.8l-6-10.4c-2.4-4-4-6.5-5.4-9.3h-0.1c-1.3,2.7-2.6,5.2-5.1,9.3l-5.6,10.3h-7l14.4-23.8
					l-13.8-23.2h7l6.2,11c1.7,3.1,3.1,5.4,4.3,7.9h0.2c1.3-2.8,2.5-4.9,4.3-7.9l6.4-11h7L155,368.7l14.6,24.1H162.6z"/>
				<path class="st3" d="M188.9,378l-4.9,14.8h-6.3l16-47h7.3l16,47h-6.5l-5-14.8H188.9z M204.3,373.3l-4.6-13.5
					c-1-3.1-1.7-5.9-2.4-8.6h-0.1c-0.7,2.8-1.5,5.6-2.4,8.5l-4.6,13.6H204.3z"/>
				<path class="st3" d="M288.8,372.2c-0.3-6.5-0.8-14.4-0.7-20.3h-0.2c-1.6,5.5-3.6,11.4-5.9,17.8l-8.3,22.8H269l-7.6-22.4
					c-2.2-6.6-4.1-12.7-5.4-18.3h-0.1c-0.1,5.9-0.5,13.7-0.9,20.8l-1.3,20.1h-5.8l3.3-47h7.7l8,22.7c2,5.8,3.6,10.9,4.7,15.8h0.2
					c1.2-4.7,2.9-9.9,4.9-15.8l8.4-22.7h7.7l2.9,47h-5.9L288.8,372.2z"/>
				<path class="st3" d="M316.5,345.8v27.8c0,10.5,4.7,15,10.9,15c7,0,11.4-4.6,11.4-15v-27.8h6.1v27.4c0,14.4-7.6,20.3-17.8,20.3
					c-9.6,0-16.9-5.5-16.9-20.1v-27.7H316.5z"/>
				<path class="st3" d="M359.9,385.4c2.7,1.7,6.7,3.1,10.9,3.1c6.2,0,9.8-3.3,9.8-8c0-4.4-2.5-6.9-8.8-9.3
					c-7.7-2.7-12.4-6.7-12.4-13.3c0-7.3,6.1-12.7,15.2-12.7c4.8,0,8.3,1.1,10.4,2.3l-1.7,4.9c-1.5-0.8-4.7-2.2-8.9-2.2
					c-6.4,0-8.8,3.8-8.8,7c0,4.4,2.9,6.5,9.3,9.1c7.9,3.1,12,6.9,12,13.8c0,7.2-5.4,13.5-16.4,13.5c-4.5,0-9.5-1.3-12-3L359.9,385.4
					z"/>
				<path class="st3" d="M406.4,345.8v47h-6.1v-47H406.4z"/>
				<path class="st3" d="M455,391.3c-2.2,1.1-6.7,2.2-12.4,2.2c-13.2,0-23.2-8.4-23.2-23.8c0-14.7,10-24.7,24.5-24.7
					c5.9,0,9.5,1.3,11.1,2.1l-1.5,4.9c-2.3-1.1-5.6-2-9.5-2c-11,0-18.3,7-18.3,19.4c0,11.5,6.6,18.9,18,18.9c3.7,0,7.5-0.8,9.9-2
					L455,391.3z"/>
			</g>
		</g>
	</g>
</g>
<g id="DESIGNED_BY_FREEPIK">
</g>
</svg>
