<?xml version="1.0" encoding="utf-8"?>
<!-- Generator: Adobe Illustrator 21.1.0, SVG Export Plug-In . SVG Version: 6.00 Build 0)  -->
<svg version="1.1" id="Capa_1" xmlns="http://www.w3.org/2000/svg" xmlns:xlink="http://www.w3.org/1999/xlink" x="0px" y="0px"
	 viewBox="0 0 50 50" style="enable-background:new 0 0 50 50;" xml:space="preserve">
<style type="text/css">
	.st0{fill:#7BC5F8;}
	.st1{fill:#FFFFFF;}
</style>
<g>
	<g>
		<path class="st0" d="M45,38.4c0,3.6-3,6.6-6.6,6.6H13c-3.6,0-6.6-3-6.6-6.6V13c0-3.6,3-6.6,6.6-6.6h25.4c3.6,0,6.6,3,6.6,6.6V38.4
			z"/>
	</g>
	<g>
		<path class="st1" d="M39.2,15.1L39.2,15.1L39.2,15.1z"/>
		<path class="st1" d="M38.1,17.9c-0.6,0.2-1,0.1-1,0.1v-0.1c0.5-0.4,1.9-1.8,2.1-2.4c0.1-0.3,0-0.4,0-0.4l-1.8,0.7L36,16.5l0,0
			c-1-1.1-2.5-1.8-4.3-1.8c-3.1,0-5.5,2.2-5.5,4.8c0,0.5,0.1,1.4,0.2,1.8c0,0.1,0-0.1,0,0c-2-0.1-4.5-0.9-6.7-2
			c-4.4-2.2-4.7-3.8-4.7-3.8c-0.7,0.7-1.1,3.2-0.3,5.1c0.5,1.2,2,2.3,2,2.3l0,0c0,0-0.7,0-1.4-0.2c-0.7-0.2-1-0.5-1-0.5
			c-0.4,1.1,0.4,2.9,1.9,4.3c0.9,0.8,2.5,1.3,2.5,1.3L16.1,28c-0.1,2.4,5.1,3.9,5.1,3.9l0,0c-1.5,1.2-3.3,1.9-5.2,1.9
			c-1,0-1.9-0.1-2.8-0.4c2.5,2.1,5.7,3.5,9.3,3.3c9.3-0.5,14.6-8.5,14.8-16.4l0,0c0,0,0.4-0.2,1.4-1.2c0.9-0.9,1.5-2,1.5-2
			S38.7,17.7,38.1,17.9z"/>
		<path class="st1" d="M39.2,15.1C39.2,15.3,39.2,15.1,39.2,15.1L39.2,15.1z"/>
	</g>
</g>
</svg>
