<?xml version="1.0" encoding="utf-8"?>
<!-- Generator: Adobe Illustrator 21.1.0, SVG Export Plug-In . SVG Version: 6.00 Build 0)  -->
<svg version="1.1" xmlns="http://www.w3.org/2000/svg" xmlns:xlink="http://www.w3.org/1999/xlink" x="0px" y="0px"
	 viewBox="0 0 200 200" style="enable-background:new 0 0 200 200;" xml:space="preserve">
<style type="text/css">
	.st0{fill:#303741;}
	.st1{fill:#05ABC0;}
	.st2{fill:#F9A012;}
</style>
<g id="Layer_2">
</g>
<g id="Layer_1">
	<g>
		<g>
			<g>
				<path class="st0" d="M35.6,181c0-1.3,1.5-4.8,4.1-9.3c-1,0-1.9-0.1-2.4-0.1c0.2-0.6,1.4-1,3.3-1.4c3.2-5.3,7.3-9.8,10.7-11.6
					c0-0.3,0.1-0.5,0.1-0.6c1.1,0,4.2,1.3,4.4,1.9c-1.3,2.4-2.7,7.2-3.6,13.7c-0.2,1.6-0.4,3.7-0.4,6.3c0,0.9,0,1.8,0.1,2.8
					c-0.1,0-0.1,0-0.4,0c-1.1,0-3.3-0.8-3.5-1.3c0-0.5,0-1,0-1.6c0-2.5,0.2-5.1,0.6-7.9c-1.1-0.1-3.9-0.2-6.5-0.3
					c-1,1.8-1.9,3.7-2.5,5.5c-0.7,1.9-1.1,4-1.3,5.7C36.3,182.4,35.6,181.9,35.6,181z M50.6,161.8c-2,0.8-5.1,4.1-7.6,8.2
					c1.7-0.2,3.7-0.2,5.8-0.3c0.3-1.7,0.7-3.4,1.2-5.1C50.2,164,50.4,162.9,50.6,161.8z"/>
				<path class="st0" d="M56.5,172.8c0.2-0.8,1.1-4,2.9-4.9c0.7,0.2,2,0.8,2.8,2c-1.9,2.1-2.4,4.2-3.5,6.9c-0.4,1.1-0.9,2.4-0.9,3.3
					c0,0.7,0,1-0.2,1c-0.3,0-2.2-0.8-2.2-2.6C55.5,177.9,55.8,176.4,56.5,172.8z M61.4,164.8c-0.2-0.2-0.4-0.7-0.4-1
					c0-0.7,0.4-2.7,0.9-4c0.9,0,3.1,1.2,3.7,2.1c-0.9,0.9-3.1,3.6-3.5,4.2c-0.5-0.1-0.9-0.5-0.9-0.8C61.3,165.2,61.4,165,61.4,164.8
					z"/>
				<path class="st0" d="M65.6,168.3c0.5-1.3,0.9-1.9,1.4-2.4c1.1,0.2,2.6,0.9,3.1,1.5c-1.1,1.3-1.9,2.8-2.7,5.4
					c2.2-2,3.8-3.6,5.3-5.8c0.2-0.1,0.3-0.2,0.6-0.2c0.6,0,1.2,0.2,1.4,0.5c-0.4,1-0.5,1.9-0.5,2.9c0,0.9,0.1,1.6,0.4,2
					c0,0.2-0.6,1.1-1.3,1.7c-1.1-0.5-2-1.6-2.4-2.8c-3.8,2.7-5.2,4.8-6.4,10.4c-0.7-0.1-2.2-1-2.5-1.6
					C62.3,177.6,64.1,171.8,65.6,168.3z"/>
				<path class="st0" d="M85.9,159.8c0-0.3,0.1-0.9,0.3-1.2c0.5,0.2,1.6,0.3,3,0.3c4.2,0,11.2-0.9,12.2-0.9c1.5,0,2,1.2,2.4,3.1
					c-1-0.1-2.2-0.2-2.9-0.2c-1.3,0-2.6,0.1-4,0.2c-1.2,2.3-2.8,6.8-3.7,9.6c-1.8,5.4-2.7,8.9-3.2,12.4c-1.4-0.2-2.5-1.1-3.4-2.6
					c0.7-2.5,1.8-5.8,4-11.9c0.9-2.3,1.8-5.1,2.3-7c-1.7,0.2-3.3,0.4-4.5,0.4C86.8,162.1,85.9,161.1,85.9,159.8z"/>
				<path class="st0" d="M100.1,168.3c0.5-1.3,0.9-1.9,1.4-2.4c1.1,0.2,2.6,0.9,3.1,1.5c-1.1,1.3-1.9,2.8-2.7,5.4
					c2.2-2,3.8-3.6,5.3-5.8c0.2-0.1,0.3-0.2,0.6-0.2c0.6,0,1.2,0.2,1.4,0.5c-0.4,1-0.6,1.9-0.6,2.9c0,0.9,0.1,1.6,0.4,2
					c0,0.2-0.6,1.1-1.3,1.7c-1.1-0.5-2-1.6-2.4-2.8c-3.8,2.7-5.2,4.8-6.4,10.4c-0.7-0.1-2.2-1-2.5-1.6
					C96.9,177.6,98.7,171.8,100.1,168.3z"/>
				<path class="st0" d="M122.3,169.4c-1.6,3.4-2.8,7-2.8,9.1c0,1.1,0.2,1.9,0.8,2.2c-0.5,0.3-1.4,0.5-2,0.5c-1.1,0-1.7-0.7-1.7-2.3
					c0-1.1,0.4-2.8,1.2-4.8c-1.6,3.7-4.3,6.8-6.2,7.1c-1.5-0.1-2.5-1.6-2.5-3.7c0-4.5,4.4-10.8,7.7-11c0.8,0.2,2.2,1.6,2.3,2.4
					c-3.3,0.5-7.3,5.9-7.3,9.7c0,0.4,0.2,0.6,0.4,0.7c1.2-0.2,2.7-2,4.9-5.6c0.9-1.4,2.1-3.7,3-5.6
					C120.9,168.3,122.3,169,122.3,169.4z"/>
				<path class="st0" d="M127.4,167.2c0.6,0,1.4,0.1,1.7,0.4c-0.3,1.3-0.4,1.9-0.5,4.6c-0.1,2.8-0.2,4.8-0.8,7c0,0.1,0,0.1,0.1,0.1
					c1.2-0.9,3.3-3.6,4.7-6c1-1.7,2.3-4.4,3.1-7.3c0.5,0,1.7,0.4,1.9,0.7c-0.2,3.5-3.4,7.5-5.3,9.7c-2,2.3-3.7,4-6.5,5.6
					c-1.1-0.4-1.7-1.1-1.7-1.9c0-1,1.1-2.2,1.1-6.8c0-1.3-0.1-2.9-0.1-3.6C125.2,168.3,125.5,167.2,127.4,167.2z"/>
				<path class="st0" d="M140,177c0,0.2,0,0.5,0,0.8c0,1,0.2,2.4,1.4,2.4c2.2,0,4.3-2.2,5.6-3.6c0.2,0.2,0.4,0.3,0.5,0.5
					c-1.8,2.4-4.2,4.2-6.1,4.6c-2.8-0.3-4.5-2.2-4.5-4.7c0-5,4.6-10.9,8.6-10.9c0.9,0.1,1.8,0.7,2.6,1.7
					C147.8,173,145.1,175,140,177z M140.2,175.9c3.2-1.6,5.6-4.1,5.8-6.9C143.8,169.3,141.2,172.1,140.2,175.9z"/>
				<path class="st0" d="M151.9,169.2c2.5-6.8,4.7-11.4,6.8-14c1,0.2,3.1,1.4,3.4,1.9c-3.2,3.8-5.5,7.9-7.5,13.5
					c-1.7,4.8-2.6,8.7-2.6,11.3c0,0.7,0,0.7,0,0.9c-0.5-0.1-1-0.3-1.1-0.6c-0.1-0.2-0.6-0.7-0.8-0.9c-0.4-0.2-0.6-1.4-0.6-2.7
					C149.5,176.9,150.4,173.5,151.9,169.2z"/>
			</g>
		</g>
	</g>
	<g>
		<g>
			<path class="st1" d="M133.2,137.7c-0.7,0.4-1.5,0.8-2.3,1.2C131.7,138.5,132.5,138.1,133.2,137.7z"/>
			<path class="st1" d="M117.8,143.1c2.3-1.6,4.3-4.7,5.8-9.1c2.1-0.4,4.2-0.9,6.2-1.5c-1.3-0.3-2.7-0.5-4-0.8
				c-0.5,0.1-1.1,0.2-1.6,0.3c0.1-0.2,0.1-0.4,0.2-0.7c-1.5-0.4-3.1-0.7-4.6-1.2c-0.2,0.9-0.4,1.8-0.6,2.6
				c-9.9,1.2-20.4,0.7-30.3-1.5c0.1-3,0.4-6.5,0.8-10.5c0-0.5,0.1-1,0.2-1.4c-1.7-0.8-3.4-1.6-5.1-2.4c-0.1,0.9-0.2,1.7-0.3,2.6
				c-0.4,4-0.6,7.5-0.6,10.5c-9.6-2.7-18.5-6.9-25.6-12.5c-0.5-3.3-0.6-6.9-0.2-10.9c0.2-1.6,0.4-3.3,0.7-4.9
				c-0.5-0.1-1-0.3-1.4-0.4c-0.9,0.2-1.8,0.3-2.7,0.4c-0.1,0.6-0.2,1.2-0.2,1.8c-0.4,4-0.3,7.7,0.3,11c-3-2.8-5.3-5.8-7-8.9
				c-0.2,0.1-0.4,0.1-0.6,0.1c1.7,3.8,4.4,7.5,8.1,11c1.2,4.8,3.5,8.7,6.7,11.8l2.6,2.3l1.6,1.3l2.8,2.1c5,3.5,11,6.2,17.4,8
				c0.4,0.5,0.9,0.8,1.4,1l2.3,0.6L91,144c-0.4-0.1-0.7-0.4-1-0.8c7.5,1.6,15.4,2,22.9,1.1c-0.6,0.4-1.2,0.6-1.9,0.7l2.6-0.4
				l1.1-0.2c0.7-0.1,1.3-0.3,1.9-0.7c4-0.7,7.8-1.9,11.3-3.4c0,0,0,0,0,0c0.9-0.4,1.9-0.9,2.8-1.4c-0.4,0.2-0.9,0.4-1.3,0.6
				C125.9,141.1,121.9,142.3,117.8,143.1z M65.4,131.6c-3.3-2.9-5.6-6.9-6.8-11.9c6.9,5.5,15.7,9.7,25.2,12.3
				c0.2,4.5,0.8,7.7,1.9,9.5C78.1,139.4,71,136.1,65.4,131.6z M113.8,143.7c-7.9,1-16.2,0.5-24-1.2c-0.7-1.7-1-4.8-1-9.3
				c9.7,2.1,20,2.6,29.8,1.4C117.3,139.1,115.6,142.1,113.8,143.7z"/>
			<path class="st1" d="M69.4,34.9c0.6-0.4,1.2-0.9,1.9-1.3C70.7,34,70.1,34.5,69.4,34.9z"/>
			<path class="st1" d="M164.1,79.1c0-0.1,0-0.2,0-0.3l-0.3-2.5l-0.3-1.9c0.1,0.7,0.2,1.4,0.3,2.1c-1.1-6.2-3.7-11.9-7.6-17
				c-0.4-4.8-2.6-9.7-6.6-14.3l-1.7-1.8l-1.2-1.2c-0.1-0.1-0.2-0.2-0.3-0.3c-0.1-0.1-0.1-0.1-0.2-0.2c0.1,0.1,0.2,0.2,0.3,0.2
				c4.8,4.9,7.4,10.2,7.8,15.4c-4.2-4.9-9.7-9.1-16.1-12.4c-0.3-3.3-2-6.7-5.1-9.9c5.2,1.1,9.6,3.3,13,6.6c-1-1-2.3-2.1-3.3-3
				c-7.2-6.1-18.6-7.2-32.2-1.9c0.1,0,0.1,0.1,0.1,0.1c7.3-2.3,14.1-2.9,19.9-2.2c2.8,2.8,4.3,5.9,4.6,8.9c-7.1-3.2-15.3-5.2-24-5.8
				c0,0.1,0,0.1,0,0.2c8.8,1.1,16.9,3.6,24.1,7.2c-0.2,3-1.6,5.8-4.1,8.3c-6-5.9-12.9-10.9-20.4-14.6c0,0-0.1,0.1-0.2,0.1
				c7,4.1,13.5,9.5,19.1,15.7c-1.4,1-3,2-4.8,2.8c-2.2,1-4.5,1.7-7,2.1c-2.4-7.5-5.3-14.4-8.5-20.1c-0.1,0-0.2,0-0.3,0
				c2.5,5.8,4.6,12.8,6.4,20.4c-4.7,0.6-9.6,0.3-14.2-0.7c2.1-7.4,4.2-14.2,6.3-19.8c-0.1,0-0.2,0-0.3-0.1c-2.9,5.4-5.7,12-8.4,19.3
				c-4.5-1.3-8.7-3.2-12-5.9c6-5.7,12.5-10.5,19.2-14c0,0,0,0-0.1-0.1c0,0-0.1-0.1-0.1-0.1c-7.2,3.1-14.2,7.5-20.6,12.8
				c-2.9-2.8-4.6-5.9-4.9-8.9c7.7-2.9,16.2-4.6,25.1-4.8c0-0.1,0-0.1,0-0.2c-8.9-0.3-17.4,0.9-25.1,3.4c0.1-3,1.3-5.9,3.8-8.3
				c6.7-0.2,14.1,1.1,21.7,4.1c0,0,0.1-0.1,0.1-0.1c-7.2-3.4-14.2-5-20.5-5.2c1.4-1.2,3.2-2.2,5.2-3.1c2-0.9,4.1-1.5,6.4-2
				c3.2,1.5,6.7,4.7,10.2,9.7c0.1,0,0.2,0,0.3,0c-2.7-5.1-5.5-8.5-8.1-10.1c4.6-0.6,9.5-0.5,14.2,0.5c-1.3,1.5-2.8,4.7-4.6,9.7
				c0.1,0,0.2,0,0.3,0.1c2.6-4.8,4.9-7.8,6.8-9.2c5,1.3,9.5,3.4,13.1,6.3c0.7,0,1.4,0.1,2.1,0.2c-3.9-3.2-9-5.6-14.4-7
				c0.7-0.4,1.3-0.4,1.9-0.3l-1.3-0.3l-2-0.4c-0.3-0.1-0.7,0.1-1.2,0.5c-5.2-1-10.6-1.2-15.7-0.5c-1.1-0.5-2.2-0.7-3.3-0.5L93.8,25
				l-2.2,0.4c1.4-0.3,2.9-0.2,4.5,0.3c-2.5,0.5-4.8,1.2-7,2.2c-2.2,1-4.2,2.1-5.8,3.4c-5.8,0.3-11,1.8-15.3,4.6
				c0.5-0.4,0.9-0.7,1.4-1.1c-0.8,0.5-1.6,1.1-2.3,1.6c-0.3,0.2-0.6,0.5-1,0.8c-0.2,0.2-0.5,0.4-0.7,0.6l-2.3,2l-2.5,2.4
				c1-1,2-1.9,3-2.7c-4.4,4.5-6.8,9.7-6.8,15.1c-4.9,4.7-8.8,10.1-11.1,16.1c0-2.9,0.6-5.7,1.7-8.4L46,66.5
				c-0.7,2.2-1.1,4.5-1.1,6.8c-0.7,2.3-1.2,4.7-1.5,7.2l0.5,0.9c0.3-1.6,0.7-3.2,1.1-4.7c0.4,3,1.3,6,2.9,9l1.2-0.4
				c0.3-0.1,0.6-0.2,0.8-0.2c-2.2-3.6-3.5-7.3-4-11c2.3-6.1,6.1-11.7,11.1-16.6c0.7,5.5,3.6,11,8.9,16.1c-3.3,5.1-6,10.3-8,15.6
				l0.6,0.1c1.3,0.1,2.5,0.3,3.7,0.5c1.8-4.6,4-9.2,6.6-13.6c1.6,1.3,3.4,2.5,5.3,3.6c0.3-0.3,0.6-0.5,1-0.5c0.2,0,0.3,0,0.5,0
				c0.4,0,0.8,0.2,1.1,0.5l0.7,0.7c0.1,0.1,0.2,0.2,0.2,0.2c0.3,0.5,0.5,0.9,0.7,1.4c3.8,1.9,7.9,3.4,12.2,4.6
				c-1.9,7.5-3.6,15-4.7,22.1c-1.3-0.4-2.6-0.8-3.9-1.2c1.3,0.7,2.5,1.4,3.8,2.1c1.6,0.9,3.3,1.7,4.9,2.5c1,0.5,2,1,3,1.4
				c9.1,1.7,18.7,2,27.7,0.9c-0.1,2.7-0.3,5.3-0.6,7.8c0,0.2,0,0.4-0.1,0.6c1.7,0.4,3.3,0.7,5,1c0.1-0.8,0.2-1.6,0.3-2.4
				c0.3-2.5,0.4-5.1,0.5-7.8c5.3-1,10.5-2.5,15.2-4.6c4-1.7,7.5-3.8,10.4-6c0.1,2.6,0.1,5.2-0.2,7.7c-0.4,4-1.3,7.6-2.7,10.8
				c-1.9,1.4-4,2.8-6.4,4c0.9,0,1.8,0,2.6,0c1-0.6,1.9-1.2,2.7-1.9c-0.3,0.6-0.7,1.3-1.1,1.9c0.4,0,0.8,0,1.2,0
				c1.1-1.4,2-2.8,2.8-4.4c2.4-2.3,4.3-4.7,5.7-7.3l1.3-2.5c-1.4,2.7-3.4,5.3-5.9,7.7c1.4-3.2,2.4-6.9,2.8-10.9
				c0.3-2.5,0.3-5.1,0.1-7.6c5.6-5.3,8.6-11.5,9-17.9c0.1,0.7,0.1,1.5,0.1,2.2c0-1.8-0.1-3.6-0.1-5.1
				C164.2,79.4,164.2,79.3,164.1,79.1z M138.4,46.7c6.4,3.6,11.9,8.2,16.1,13.3c-0.3,5.2-2.7,10.1-7.2,14.4
				c-3.5-6.6-8.1-12.9-13.5-18.6C136.7,53.1,138.2,50,138.4,46.7z M100.9,62.2c5.1,1.1,10.6,1.4,15.7,0.8c1.6,7.2,2.8,14.9,3.6,22.6
				c-8.1,1-16.6,0.5-24.7-1.2C97.2,76.8,99,69.3,100.9,62.2z M65.6,38.1c4.6-3,10.1-4.8,16.2-5.4c-2.7,2.7-4.1,5.9-4.2,9.2
				c-7,2.6-13.3,6.2-18.6,10.7C59.1,47.4,61.4,42.4,65.6,38.1z M67.8,70.8c-5.1-4.9-7.9-10.2-8.6-15.4c5.2-4.7,11.5-8.7,18.5-11.6
				c0.4,3.3,2.2,6.7,5.5,9.8C77.4,58.7,72.1,64.5,67.8,70.8z M70.6,73.2c4.1-6.5,9-12.7,14.4-18.1c3.7,2.9,8.3,5.1,13.3,6.5
				c-2.5,6.9-4.8,14.3-6.8,21.8C83.6,81.2,76.3,77.8,70.6,73.2z M121.5,111.5c-10,1.2-20.5,0.7-30.5-1.5c1-7.1,2.4-14.7,3.9-22.3
				c8.4,1.8,17.3,2.3,25.7,1.2C121.3,96.6,121.6,104.3,121.5,111.5z M119.2,62.6c2.7-0.5,5.3-1.3,7.8-2.3c2-0.9,3.8-1.9,5.3-3.1
				c5,5.9,9.3,12.5,12.6,19.3c-2.4,1.8-5.1,3.4-8.3,4.8c-3.8,1.7-7.9,2.9-12.2,3.7C123.1,77.3,121.4,69.7,119.2,62.6z M141.6,106.2
				c-4.7,2-9.8,3.5-15,4.5c0-7.1-0.6-14.8-1.7-22.4c4.5-0.8,8.7-2.1,12.7-3.8c3.3-1.4,6.2-3.1,8.7-5c3,6.9,5,13.9,5.7,20.8
				C149,102.4,145.5,104.4,141.6,106.2z M155,97.6c-0.8-6.8-2.9-13.7-6.2-20.4c4.6-4.4,7.2-9.6,7.5-14.9c3.9,5.4,6.5,11.3,7.6,17.6
				C163.5,86.2,160.5,92.4,155,97.6z"/>
			<path class="st1" d="M164.3,84.7c0,1.2,0,2.4,0,3.4C164.4,87,164.4,85.8,164.3,84.7z"/>
		</g>
		<g>
			<g>
				<path class="st2" d="M36.3,82l1.4-5.6c-19.5-20.9-20.3-39.6,0.6-45.1c1.7-0.4,3.5-0.8,5.4-1c3.8-0.5,11.7-0.5,17.3-0.2
					c0.2,0,0.7,0,1.3,0c2.3,0.1,6.4,0.2,7,0.2c2.4-1,3.6-1.5,7.4-2.5c-1.4-0.3-6.4-1.3-8.9-1.7c-0.4-0.1-0.7-0.1-1-0.2
					c-10.1-1.5-22.6-2.3-29.7-1.4c-2.1,0.3-4.2,0.7-6,1.2C5.9,32.4,9,56.4,36.3,82z"/>
				<path class="st2" d="M171.8,83.7c-0.1-0.1-0.4-0.5-0.8-0.9c-0.8-0.9-1.9-2.1-2.8-3.1c0.1,1.8,0.1,3.3,0,4.7
					c0.8,0.9,1.9,2.7,2.6,3.8c0.3,0.5,0.5,0.8,0.6,1c8.9,16.9,6.3,32.4-9.7,36.6c-1.7,0.4-3.5,0.8-5.4,1c-3.1,0.4-6.3,0.7-9.6,0.7
					c-0.3,0-0.6,0-0.8,0c-1.2,0-2.4,0-3.6,0c-1,0-2-0.1-3.1-0.1c-4.5-0.2-9-0.7-13.8-1.6c-1.6-0.3-3.3-0.6-4.9-1
					c-9.7-2.2-19.8-5.6-30.1-10.7c-1.7-0.8-3.3-1.6-5-2.5c-2.9-1.5-5.8-3.1-8.7-4.9l-5.4-0.3l-1.6-0.1c4.9,3.1,10,6,15.2,8.6
					c1.7,0.8,3.3,1.6,5,2.4c9.9,4.6,20.1,8.3,30,10.9c1.6,0.4,3.2,0.8,4.8,1.2c1.8,0.4,3.6,0.8,5.3,1.1c1.2,0.2,2.4,0.5,3.6,0.7
					c2.6,0.4,5.2,0.8,7.7,1.1c0,0,0,0,0,0c7.8,0.8,15,0.9,21.5,0c2.1-0.3,4.1-0.7,6-1.2C190.8,125.4,190,105.3,171.8,83.7z"/>
				<path class="st2" d="M76.7,102c0,0,4.1-1.3,0.7-4.9c0,0-1.9-2.2-8.4-4c0.7-0.6,1.9-1.8,3.2-3.1l1.6,1.2c0.1,0.1,0.2,0.2,0.3,0.2
					c0.1,0,0.2,0.1,0.3,0.1c0.8,0.2,1.6-0.2,1.8-1c0.2-0.5,0-1.1-0.3-1.5c-0.2-0.2-0.4-0.4-0.7-0.4c0,0-0.1,0-0.1,0l-1.1-0.7
					c1.8-2.3,3.1-4.7,2.1-6.1L75.5,81c0,0-2.3,4.3-12.5,10.7c-0.5-0.1-0.9-0.1-1.4-0.2c-1.2-0.2-2.5-0.3-3.9-0.5c0,0-0.1,0-0.4-0.1
					c-0.6-0.1-1.8-0.3-3.3-0.5c-1.1-0.2-2.3-0.4-3.5-0.5c-1.2-0.2-2.4-0.4-3.4-0.5l2.3-1.1l1.6-0.8c0,0,0.2-0.2,0.3-0.4
					c0-0.1,0-0.2-0.2-0.3c-0.2,0-0.6,0-1.4,0.3l-0.8,0.3l-3,1l-2.3-3.9l-0.3-0.6l-1.7-2.9c0,0-1.5-2.8-1,0.7c0,0,0.9,4.8,2.3,7.2
					l-7.6,1.6c0,0-1.1,0.5,0.5,0.6l7.5-0.1c0.1,0.2,0.3,0.5,0.5,0.8c0,0,0,0,0,0c0.1,0.1,0.1,0.2,0.2,0.3c0.6,0.9,1.7,1.9,3.2,2.9
					c0.8,0.5,1.9,1.1,3.6,1.9c-3,0.4-11.8,1.4-22.1,0.5c0,0-4.6,0,3.6,2.4c0,0,0.5,1.5,0.8,2.2c0.3,0.9,2.2,0.9,2.3-0.1
					c0.1-0.5-0.4-1.5-0.4-1.5c2.6,0.4,5.3,0.6,8.9,0.5c0,0,1.2,2,1.8,2.7c0.3,0.3,0.6,0.4,1,0.4c0.1,0,0.3,0,0.4,0
					c0.8-0.1,1.5-0.6,1.7-1.1c0.1-0.3,0.1-0.7,0-1c-0.1-0.2-0.2-0.4-0.3-0.6l-0.4-0.6c2.3-0.2,4.8-0.5,7.2-0.9
					c0.8-0.1,1.6-0.3,2.4-0.4c0.5,0.2,1.1,0.3,1.7,0.5c0.6,0.2,1.3,0.4,2,0.5c1.4,0.4,3,0.8,4.8,1.2c0,0,1.5,0.4,3.4,0.6
					C71.6,102.5,74.5,102.7,76.7,102z"/>
			</g>
		</g>
	</g>
</g>
</svg>
